<svg width="292" height="89" viewBox="0 0 292 89" fill="none" xmlns="http://www.w3.org/2000/svg">
<rect x="0.5" y="0.5" width="50.0417" height="34" rx="3.5" fill="white" stroke="#D9D9D9"/>
<path fill-rule="evenodd" clip-rule="evenodd" d="M25.8854 25.0204C24.1477 26.5199 21.8936 27.4252 19.4305 27.4252C13.9346 27.4252 9.47919 22.9181 9.47919 17.3584C9.47919 11.7986 13.9346 7.2915 19.4305 7.2915C21.8936 7.2915 24.1477 8.19677 25.8854 9.69634C27.6232 8.19677 29.8773 7.2915 32.3404 7.2915C37.8363 7.2915 42.2917 11.7986 42.2917 17.3584C42.2917 22.9181 37.8363 27.4252 32.3404 27.4252C29.8773 27.4252 27.6232 26.5199 25.8854 25.0204Z" fill="#ED0006"/>
<path fill-rule="evenodd" clip-rule="evenodd" d="M25.8854 25.0204C28.0251 23.1739 29.3818 20.4264 29.3818 17.3584C29.3818 14.2903 28.0251 11.5428 25.8854 9.69634C27.6231 8.19677 29.8772 7.2915 32.3404 7.2915C37.8363 7.2915 42.2917 11.7986 42.2917 17.3584C42.2917 22.9181 37.8363 27.4252 32.3404 27.4252C29.8772 27.4252 27.6231 26.5199 25.8854 25.0204Z" fill="#F9A000"/>
<path fill-rule="evenodd" clip-rule="evenodd" d="M25.8855 9.69629C28.0251 11.5427 29.3818 14.2902 29.3818 17.3583C29.3818 20.4263 28.0251 23.1738 25.8855 25.0202C23.7458 23.1738 22.3891 20.4263 22.3891 17.3583C22.3891 14.2902 23.7458 11.5427 25.8855 9.69629Z" fill="#FF5E00"/>
<rect x="80.7083" y="0.5" width="50.0417" height="34" rx="3.5" fill="white" stroke="#D9D9D9"/>
<path fill-rule="evenodd" clip-rule="evenodd" d="M95.7035 23.7101H92.6113L90.2926 14.864C90.1826 14.4571 89.9489 14.0974 89.6051 13.9278C88.7473 13.5017 87.802 13.1626 86.7708 12.9916V12.6511H91.752C92.4395 12.6511 92.9551 13.1626 93.041 13.7568L94.2441 20.1378L97.3347 12.6511H100.341L95.7035 23.7101ZM102.06 23.7101H99.1394L101.544 12.6511H104.464L102.06 23.7101ZM108.242 15.7147C108.328 15.1191 108.844 14.7785 109.445 14.7785C110.391 14.693 111.42 14.864 112.28 15.2887L112.795 12.9076C111.936 12.567 110.991 12.396 110.133 12.396C107.299 12.396 105.236 13.9278 105.236 16.0538C105.236 17.6712 106.697 18.5204 107.728 19.032C108.844 19.5421 109.274 19.8827 109.188 20.3928C109.188 21.158 108.328 21.4986 107.47 21.4986C106.439 21.4986 105.408 21.2435 104.464 20.8175L103.949 23.2C104.98 23.6246 106.096 23.7956 107.127 23.7956C110.305 23.8797 112.28 22.3493 112.28 20.0523C112.28 17.1596 108.242 16.9901 108.242 15.7147V15.7147ZM122.5 23.7101L120.181 12.6511H117.691C117.175 12.6511 116.659 12.9916 116.488 13.5017L112.194 23.7101H115.2L115.8 22.0942H119.494L119.838 23.7101H122.5ZM118.12 15.6292L118.978 19.7972H116.574L118.12 15.6292Z" fill="#172B85"/>
<rect x="160.917" y="0.5" width="50.0417" height="34" rx="3.5" fill="white" stroke="#D9D9D9"/>
<path fill-rule="evenodd" clip-rule="evenodd" d="M174.854 22.2261H172.586C172.43 22.2261 172.298 22.3389 172.274 22.4921L171.357 28.3095C171.338 28.4243 171.427 28.5278 171.544 28.5278H172.627C172.782 28.5278 172.914 28.4149 172.938 28.2614L173.186 26.6924C173.21 26.5388 173.342 26.4261 173.497 26.4261H174.215C175.709 26.4261 176.572 25.7029 176.797 24.2699C176.899 23.643 176.801 23.1504 176.508 22.8053C176.185 22.4266 175.613 22.2261 174.854 22.2261ZM175.116 24.3508C174.992 25.1649 174.37 25.1649 173.769 25.1649H173.426L173.666 23.6445C173.681 23.5527 173.76 23.485 173.853 23.485H174.01C174.42 23.485 174.806 23.485 175.006 23.7185C175.125 23.8579 175.161 24.0648 175.116 24.3508ZM181.636 24.3247H180.549C180.457 24.3247 180.377 24.3924 180.362 24.4843L180.314 24.7881L180.238 24.6781C180.003 24.3367 179.479 24.2226 178.955 24.2226C177.755 24.2226 176.729 25.1318 176.53 26.4074C176.426 27.0435 176.573 27.6519 176.934 28.0762C177.266 28.4662 177.739 28.6288 178.303 28.6288C179.27 28.6288 179.807 28.0068 179.807 28.0068L179.758 28.3087C179.74 28.4242 179.829 28.5276 179.944 28.5276H180.923C181.079 28.5276 181.21 28.4148 181.234 28.2613L181.822 24.543C181.84 24.4286 181.752 24.3247 181.636 24.3247ZM180.121 26.4391C180.016 27.0598 179.524 27.4764 178.896 27.4764C178.58 27.4764 178.328 27.3752 178.166 27.1835C178.006 26.9931 177.944 26.7221 177.996 26.4203C178.094 25.8048 178.594 25.3747 179.213 25.3747C179.521 25.3747 179.772 25.4771 179.937 25.6705C180.103 25.8659 180.169 26.1386 180.121 26.4391ZM186.33 24.3245H187.422C187.574 24.3245 187.664 24.496 187.577 24.6214L183.946 29.8625C183.887 29.9474 183.79 29.9979 183.687 29.9979H182.596C182.443 29.9979 182.353 29.8251 182.442 29.6994L183.573 28.1035L182.37 24.5746C182.329 24.452 182.419 24.3245 182.55 24.3245H183.622C183.762 24.3245 183.885 24.416 183.925 24.5494L184.563 26.6808L186.069 24.4629C186.128 24.3763 186.226 24.3245 186.33 24.3245Z" fill="#253B80"/>
<path fill-rule="evenodd" clip-rule="evenodd" d="M198.166 28.3098L199.097 22.386C199.112 22.2941 199.191 22.2264 199.284 22.2261H200.332C200.448 22.2261 200.537 22.3298 200.518 22.4447L199.6 28.2617C199.576 28.4153 199.444 28.5281 199.289 28.5281H198.353C198.237 28.5281 198.148 28.4246 198.166 28.3098ZM191.036 22.2264H188.767C188.612 22.2264 188.48 22.3392 188.456 22.4924L187.538 28.3098C187.52 28.4246 187.609 28.5281 187.725 28.5281H188.889C188.997 28.5281 189.09 28.4492 189.107 28.3417L189.367 26.6927C189.391 26.5391 189.523 26.4264 189.678 26.4264H190.396C191.891 26.4264 192.753 25.7032 192.978 24.2702C193.08 23.6433 192.982 23.1507 192.689 22.8056C192.367 22.4269 191.795 22.2264 191.036 22.2264ZM191.298 24.3511C191.174 25.1652 190.552 25.1652 189.95 25.1652H189.608L189.849 23.6448C189.863 23.553 189.942 23.4853 190.035 23.4853H190.192C190.601 23.4853 190.988 23.4853 191.188 23.7188C191.307 23.8582 191.343 24.0651 191.298 24.3511ZM197.817 24.325H196.731C196.638 24.325 196.559 24.3927 196.545 24.4847L196.497 24.7885L196.42 24.6784C196.185 24.337 195.661 24.2229 195.138 24.2229C193.937 24.2229 192.912 25.1322 192.712 26.4077C192.609 27.0438 192.756 27.6522 193.117 28.0765C193.448 28.4665 193.921 28.6291 194.485 28.6291C195.452 28.6291 195.989 28.0071 195.989 28.0071L195.94 28.309C195.922 28.4245 196.011 28.5279 196.127 28.5279H197.106C197.26 28.5279 197.392 28.4151 197.417 28.2616L198.004 24.5433C198.022 24.4289 197.933 24.325 197.817 24.325ZM196.303 26.4394C196.198 27.0601 195.705 27.4767 195.077 27.4767C194.762 27.4767 194.509 27.3755 194.347 27.1838C194.187 26.9935 194.126 26.7224 194.177 26.4206C194.275 25.8051 194.776 25.375 195.394 25.375C195.703 25.375 195.953 25.4774 196.119 25.6708C196.285 25.8662 196.351 26.1389 196.303 26.4394Z" fill="#179BD7"/>
<path d="M183.25 20.1451L183.529 18.3736L182.907 18.3592H179.941L182.003 5.28696C182.009 5.24749 182.03 5.2107 182.06 5.18457C182.091 5.15844 182.129 5.14404 182.17 5.14404H187.172C188.833 5.14404 189.979 5.48961 190.577 6.17166C190.858 6.49164 191.036 6.826 191.123 7.19396C191.213 7.58006 191.215 8.04134 191.126 8.60395L191.12 8.64502V9.0055L191.401 9.16443C191.637 9.28974 191.824 9.4332 191.968 9.59745C192.208 9.87102 192.364 10.2187 192.429 10.6309C192.497 11.0549 192.474 11.5594 192.364 12.1305C192.236 12.7875 192.029 13.3597 191.749 13.8279C191.492 14.2594 191.165 14.6171 190.776 14.8945C190.405 15.1579 189.964 15.358 189.465 15.486C188.982 15.6117 188.431 15.6753 187.827 15.6753H187.438C187.159 15.6753 186.889 15.7755 186.677 15.9553C186.464 16.1387 186.323 16.3892 186.28 16.6634L186.251 16.8229L185.758 19.9451L185.735 20.0598C185.73 20.0962 185.719 20.1143 185.705 20.1266C185.691 20.1376 185.672 20.1451 185.653 20.1451H183.25Z" fill="#253B80"/>
<path d="M191.666 8.68652C191.651 8.78198 191.634 8.87956 191.615 8.97982C190.955 12.3667 188.698 13.5367 185.816 13.5367H184.349C183.996 13.5367 183.699 13.7927 183.644 14.1403L182.893 18.9058L182.68 20.2565C182.644 20.4848 182.82 20.6906 183.05 20.6906H185.653C185.962 20.6906 186.223 20.4667 186.272 20.1627L186.298 20.0304L186.788 16.9203L186.819 16.7497C186.867 16.4447 187.129 16.2208 187.438 16.2208H187.827C190.349 16.2208 192.323 15.1968 192.9 12.2339C193.141 10.9961 193.016 9.96266 192.379 9.23579C192.186 9.01661 191.946 8.83477 191.666 8.68652Z" fill="#179BD7"/>
<path d="M190.976 8.41158C190.875 8.38224 190.771 8.35558 190.664 8.33158C190.557 8.30813 190.447 8.28733 190.334 8.2692C189.939 8.2052 189.505 8.1748 189.041 8.1748H185.12C185.023 8.1748 184.932 8.19666 184.85 8.23613C184.669 8.32305 184.534 8.49424 184.502 8.70381L183.668 13.9865L183.644 14.1406C183.699 13.7929 183.996 13.5369 184.348 13.5369H185.816C188.698 13.5369 190.955 12.3664 191.615 8.98005C191.634 8.8798 191.651 8.78221 191.666 8.68676C191.499 8.59823 191.318 8.5225 191.123 8.45797C191.076 8.44197 191.026 8.42651 190.976 8.41158Z" fill="#222D65"/>
<path d="M184.502 8.70385C184.534 8.49427 184.669 8.32309 184.85 8.2367C184.932 8.19723 185.023 8.17537 185.12 8.17537H189.041C189.505 8.17537 189.939 8.20576 190.334 8.26976C190.447 8.28789 190.557 8.30869 190.664 8.33215C190.771 8.35616 190.875 8.38282 190.976 8.41214C191.026 8.42708 191.076 8.44254 191.124 8.45801C191.319 8.52253 191.5 8.59879 191.666 8.68678C191.863 7.43518 191.665 6.583 190.988 5.81134C190.242 4.96184 188.896 4.59814 187.173 4.59814H182.17C181.818 4.59814 181.518 4.85411 181.464 5.20234L179.38 18.409C179.339 18.6703 179.541 18.906 179.804 18.906H182.892L183.668 13.9865L184.502 8.70385Z" fill="#253B80"/>
<rect x="241.125" y="0.5" width="50.0417" height="34" rx="3.5" fill="white" stroke="#D9D9D9"/>
<path fill-rule="evenodd" clip-rule="evenodd" d="M248.902 20.784L250.635 22.929H246.346L248.902 20.784ZM248.358 20.1213L245.003 22.9356L245.002 16.0142L248.358 20.1213ZM256.43 13.1519C256.43 13.1519 255.693 12.8033 254.838 12.8542C253.859 12.9118 253.041 13.287 252.571 13.7819C252.275 14.0929 251.947 14.4723 251.783 14.8842C251.545 15.4802 251.494 16.2677 251.494 16.2677C251.494 16.2677 251.152 15.9774 250.723 15.1313C250.225 14.1472 250.088 13.5511 250.021 12.871C249.961 12.2742 250.055 11.6841 250.055 11.6841H256.43V13.1519ZM256.43 15.1141V19.4783C256.43 19.4783 256.033 19.6305 255.71 19.6305C255.387 19.6305 254.836 19.5825 254.197 19.231C253.562 18.8824 253.211 18.4606 252.939 18.0784C252.663 17.6896 252.434 17.1507 252.367 16.7623C252.312 16.4516 252.253 15.6767 252.571 15.0468C252.743 14.705 253.205 14.1191 254.095 14.0858C254.82 14.0579 255.223 14.2487 255.591 14.451C256.293 14.8367 256.43 15.1141 256.43 15.1141V15.1141ZM249.489 19.1718L250.638 18.2134C250.272 17.7453 250.175 17.5689 249.765 16.9646C249.346 16.3461 248.995 15.6656 248.694 14.8672C248.369 14.0023 248.291 13.5167 248.327 12.871C248.372 12.0495 248.558 11.6841 248.558 11.6841H245L245.002 13.6019C245.002 13.6019 247.725 17.0154 249.489 19.1718V19.1718ZM252.774 22.9259H256.43V20.2603C256.43 20.2603 255.523 20.6762 254.934 20.7098C254.583 20.7303 254.242 20.7438 253.693 20.5976C253.082 20.4353 252.735 20.2771 252.168 19.8101C251.714 19.4355 251.194 18.8824 251.194 18.8824L250.037 19.8467C250.574 20.503 250.97 20.9808 251.091 21.1094C251.613 21.6606 251.834 21.8632 252.185 22.0596C252.537 22.2565 253.71 22.2458 253.71 22.2458L252.774 22.9259Z" fill="#E94E0F"/>
<path fill-rule="evenodd" clip-rule="evenodd" d="M284.078 20.5549C284.078 21.3272 284.182 22.5967 283.317 22.9058V22.9573H286.602V22.9058C285.738 22.5798 285.842 21.3272 285.842 20.5549V14.0862C285.842 13.3142 285.738 12.0444 286.602 11.7185V11.667H283.317V11.7185C284.199 12.0444 284.078 13.297 284.078 14.0862V20.5549ZM272.032 14.0862L277.963 21.5503C278.724 22.5281 279.26 23.0946 280.487 23.5062V13.8803C280.487 12.9196 280.487 12.2331 281.387 11.7185V11.667H278.343V11.7185C279.26 12.2331 279.242 12.9196 279.242 13.8803V20.3834L272.914 12.4561L272.672 12.113C272.551 11.9758 272.482 11.89 272.413 11.6842V11.667H269.888V11.7185C270.787 12.2331 270.787 12.9196 270.787 13.8803V20.7269C270.787 21.6875 270.787 22.3737 269.871 22.9058V22.9573H272.932V22.9058C272.015 22.3737 272.032 21.6875 272.032 20.7269V14.0862ZM262.365 16.2141V12.8511L263.524 12.7307C264.561 12.6277 265.667 13.2456 265.667 14.4296C265.667 15.8366 264.059 16.2141 262.936 16.2141H262.365ZM262.365 21.5845V17.3463L263.575 17.2777C265.097 17.1919 266.722 17.9128 266.722 19.5771C266.722 21.2071 265.288 21.8591 263.869 21.7219L262.365 21.5845ZM260.601 20.5378C260.601 21.3272 260.705 22.5798 259.841 22.9058V22.9573H262.694C263.99 22.9573 265.357 23.0089 266.567 22.4254C267.725 21.8763 268.642 20.7437 268.642 19.4224C268.642 17.7412 267.379 16.7115 265.823 16.3852C266.809 15.9565 267.552 15.3045 267.552 14.1548C267.552 12.6277 266.221 11.667 263.939 11.667H259.841V11.7185C260.723 12.0444 260.601 13.297 260.601 14.069V20.5378Z" fill="#005B6A"/>
<rect x="77.5" y="54.5" width="48" height="32.6" rx="3.5" fill="#0060AF" stroke="#005397"/>
<path fill-rule="evenodd" clip-rule="evenodd" d="M87.0781 74.1458C87.0781 73.6761 87.0835 72.4206 87.0712 72.2659C87.0819 70.3976 85.6409 69.0796 84.7305 69.1824C84.1006 69.2339 83.5725 69.476 83.2892 70.1726C83.0263 70.8218 83.2613 71.6853 84.1349 71.8879C85.0688 72.1055 85.6143 72.2866 86.009 72.542C86.4927 72.8547 86.8875 73.4521 86.898 74.1466" fill="white"/>
<path fill-rule="evenodd" clip-rule="evenodd" d="M86.6877 74.1465C86.6908 73.5444 86.3342 73.012 85.8683 72.7259C85.455 72.473 84.9001 72.3069 84.0049 72.0928C83.7282 72.0261 83.4388 71.8779 83.3492 71.689C83.1122 71.9141 83.0691 72.4203 83.1108 72.7162C83.1593 73.0584 83.5836 73.6226 84.2226 73.6447C84.6128 73.6595 85.1061 73.5656 85.3427 73.5182C85.7509 73.4351 86.3966 73.6761 86.4994 74.1458" fill="white"/>
<path fill-rule="evenodd" clip-rule="evenodd" d="M87.4081 66.2705C86.3246 66.2705 85.3889 66.944 85.3922 68.1095C85.3955 69.0895 86.2316 69.6142 86.5301 69.9889C86.9809 70.5537 87.225 71.2221 87.2502 72.2448C87.2701 73.0588 87.269 73.8626 87.2734 74.1475H87.5125C87.5084 73.8494 87.4976 72.9961 87.5099 72.2197C87.5261 71.1966 87.7789 70.5537 88.23 69.9889C88.5311 69.6142 89.3664 69.0895 89.3682 68.1095C89.3724 66.944 88.437 66.2705 87.3546 66.2705" fill="white"/>
<path fill-rule="evenodd" clip-rule="evenodd" d="M87.6831 74.1458C87.6831 73.6761 87.6774 72.4206 87.6895 72.2659C87.6789 70.3976 89.119 69.0796 90.0302 69.1824C90.6601 69.2339 91.1875 69.476 91.4718 70.1726C91.7343 70.8218 91.498 71.6853 90.6256 71.8879C89.691 72.1055 89.1463 72.2866 88.7506 72.542C88.2675 72.8547 87.9003 73.4521 87.889 74.1466" fill="white"/>
<path fill-rule="evenodd" clip-rule="evenodd" d="M88.0732 74.1465C88.0698 73.5444 88.4262 73.012 88.8908 72.7259C89.3059 72.473 89.8614 72.3069 90.7557 72.0928C91.033 72.0261 91.3221 71.8779 91.4102 71.689C91.6483 71.9141 91.6914 72.4203 91.6496 72.7162C91.6002 73.0584 91.1768 73.6226 90.539 73.6447C90.149 73.6595 89.653 73.5656 89.4174 73.5182C89.0109 73.4351 88.3633 73.6761 88.2601 74.1458" fill="white"/>
<path fill-rule="evenodd" clip-rule="evenodd" d="M88.4073 76.0907L88.2688 75.1371L88.6034 75.0892C88.6848 75.0788 88.784 75.0922 88.8237 75.1402C88.8675 75.1905 88.8809 75.232 88.8894 75.2979C88.9021 75.3795 88.8771 75.4737 88.7797 75.5206V75.5235C88.8884 75.5235 88.9541 75.5971 88.9732 75.7214C88.976 75.7478 88.9843 75.8111 88.976 75.864C88.9539 75.9899 88.8743 76.0305 88.7397 76.0483L88.4073 76.0907ZM88.6227 75.92C88.6624 75.9146 88.7026 75.9126 88.7341 75.8937C88.7823 75.864 88.7779 75.8007 88.7712 75.7535C88.7545 75.6501 88.7258 75.6107 88.6094 75.627L88.5362 75.6376L88.5826 75.9252L88.6227 75.92ZM88.5527 75.4793C88.597 75.4726 88.657 75.4675 88.682 75.4279C88.6952 75.4014 88.7119 75.3804 88.7008 75.3215C88.6872 75.2518 88.6627 75.2085 88.5686 75.2252L88.481 75.2385L88.5156 75.4829L88.5527 75.4793Z" fill="white"/>
<path fill-rule="evenodd" clip-rule="evenodd" d="M89.857 75.5168C89.8596 75.5345 89.8626 75.5543 89.8637 75.572C89.8908 75.7458 89.857 75.8899 89.6496 75.9296C89.3429 75.9851 89.2842 75.8057 89.2303 75.5543L89.2015 75.4182C89.1593 75.1777 89.1411 74.9956 89.44 74.9394C89.6086 74.9105 89.7199 74.9737 89.7662 75.1318C89.7734 75.1554 89.7825 75.1787 89.7858 75.2025L89.6025 75.2382C89.5813 75.1787 89.5532 75.0725 89.4707 75.0815C89.3226 75.0984 89.3715 75.272 89.3867 75.3446L89.4419 75.6057C89.4584 75.6846 89.4913 75.8108 89.6195 75.7864C89.7235 75.7668 89.6781 75.614 89.6689 75.5513" fill="white"/>
<path fill-rule="evenodd" clip-rule="evenodd" d="M90.1512 75.8053L90.0879 74.8184L90.3342 74.7476L90.8507 75.6058L90.6567 75.6606L90.5343 75.4424L90.3189 75.5034L90.3468 75.7514L90.1512 75.8053ZM90.3009 75.344L90.4566 75.3015L90.2499 74.9023L90.3009 75.344Z" fill="white"/>
<path fill-rule="evenodd" clip-rule="evenodd" d="M84.0658 75.0596C84.1429 74.827 84.2118 74.6556 84.5061 74.7317C84.6636 74.7732 84.7612 74.8386 84.7566 75.011C84.7558 75.0494 84.7424 75.0886 84.7336 75.1264L84.5504 75.0788C84.5744 74.9835 84.5896 74.9079 84.4652 74.8718C84.3214 74.8346 84.2863 74.9991 84.2665 75.0701L84.192 75.3287C84.1683 75.4055 84.1399 75.5325 84.2665 75.5653C84.3711 75.5918 84.4344 75.4951 84.4723 75.3538L84.3443 75.3217L84.3886 75.1721L84.6898 75.2633L84.5468 75.762L84.4082 75.7265L84.4394 75.6211H84.4355C84.3715 75.7074 84.2938 75.7164 84.2256 75.704C83.9243 75.6272 83.9558 75.4416 84.0277 75.1936" fill="white"/>
<path fill-rule="evenodd" clip-rule="evenodd" d="M85.1871 75.4806L85.0963 75.8862L84.8921 75.8447L85.1097 74.8975L85.4579 74.9715C85.6617 75.0131 85.7232 75.0985 85.6944 75.2746C85.6779 75.3757 85.6251 75.4845 85.496 75.4757L85.4946 75.4741C85.6038 75.51 85.613 75.5619 85.5939 75.6515C85.5857 75.6898 85.529 75.9212 85.5681 75.9586L85.5695 75.9871L85.3582 75.935C85.3494 75.8709 85.3793 75.7555 85.3912 75.6916C85.403 75.635 85.4221 75.5554 85.3612 75.5255C85.3136 75.5015 85.2958 75.5027 85.2419 75.4911L85.1871 75.4806ZM85.2219 75.3338L85.3594 75.3688C85.4429 75.3803 85.4894 75.3395 85.5058 75.2443C85.5207 75.157 85.5014 75.123 85.4265 75.1061L85.279 75.0779L85.2219 75.3338Z" fill="white"/>
<path fill-rule="evenodd" clip-rule="evenodd" d="M86.4971 75.1092L86.6991 75.1313L86.6121 75.7972C86.5698 76.0084 86.4832 76.1006 86.2368 76.0718C85.9862 76.0418 85.9267 75.9343 85.9418 75.7215L86.0294 75.0562L86.233 75.078L86.1457 75.7285C86.1363 75.7992 86.1191 75.9038 86.2523 75.9166C86.3705 75.9251 86.3973 75.8511 86.4108 75.7593" fill="white"/>
<path fill-rule="evenodd" clip-rule="evenodd" d="M86.9217 76.108L86.9826 75.1558L87.3705 75.1716C87.554 75.1802 87.6019 75.3213 87.5963 75.456C87.5909 75.5379 87.5638 75.6294 87.4881 75.679C87.426 75.7212 87.3461 75.7312 87.2721 75.7278L87.1457 75.7212L87.1204 76.1203L86.9217 76.108ZM87.1513 75.576L87.2541 75.5814C87.3376 75.5843 87.3929 75.5531 87.4002 75.4375C87.4043 75.3266 87.3597 75.3077 87.2515 75.3032L87.1701 75.3006L87.1513 75.576Z" fill="white"/>
<path fill-rule="evenodd" clip-rule="evenodd" d="M114.292 67.1911L112.749 69.8302C112.167 69.3844 111.456 69.0566 110.549 69.0566C108.403 69.0566 107.531 70.5647 107.531 71.6271C107.531 72.4158 108.079 73.5792 109.989 73.5792C110.79 73.5792 111.93 73.0536 112.258 72.8143L110.733 75.876C110.005 76.0127 109.767 76.0975 109.151 76.1155C105.733 76.2116 104.352 74.2321 104.353 72.2095C104.355 69.5355 106.877 66.2836 111.058 66.2836C111.314 66.2836 111.627 66.3673 111.895 66.4598L112.166 66.1333" fill="white"/>
<path fill-rule="evenodd" clip-rule="evenodd" d="M120.656 66.2158L121.093 75.8071H117.842L117.84 74.1623H115.624L114.894 75.8071H111.369L115.055 68.9581L114.224 68.953L115.803 66.2158H120.656ZM117.819 69.15L116.566 71.9398H117.857L117.819 69.15Z" fill="white"/>
<path fill-rule="evenodd" clip-rule="evenodd" d="M102.301 66.2157C103.91 66.2242 104.82 67.0478 104.82 68.2375C104.82 69.3344 103.86 70.3053 102.807 70.8073C103.892 71.1831 103.985 72.1053 103.985 72.7577C103.985 74.3341 102.308 75.807 100.126 75.807H95.3697L97.2252 69.0534L96.463 69.0493L98.021 66.2157C98.021 66.2157 100.992 66.2072 102.301 66.2157V66.2157ZM100.721 70.1044C101.054 70.1044 101.642 70.025 101.789 69.4175C101.95 68.758 101.399 68.7403 101.134 68.7403L100.188 68.7365L99.8584 70.1044H100.721ZM99.3844 71.7993L98.949 73.3757H100.063C100.501 73.3757 101.098 73.1706 101.244 72.6576C101.388 72.1433 100.971 71.7993 100.535 71.7993H99.3844Z" fill="white"/>
<path fill-rule="evenodd" clip-rule="evenodd" d="M87.451 76.9858C85.8039 76.9858 84.1114 76.6034 82.4211 75.8471L82.3796 75.8279L82.3598 75.788C81.6012 74.2786 81.2 72.6278 81.2 71.0126C81.2 69.3997 81.5847 67.8195 82.3438 66.3121L82.3647 66.272L82.407 66.2521C83.9706 65.5538 85.6526 65.2002 87.4081 65.2002C89.0432 65.2002 90.7897 65.5939 92.4576 66.3408L92.5003 66.3587L92.5202 66.3995C93.2931 67.9368 93.7008 69.5873 93.7008 71.1758C93.7008 72.758 93.3094 74.3397 92.5354 75.876L92.5151 75.9163L92.472 75.935C90.9322 76.6221 89.1958 76.9858 87.451 76.9858M82.5775 75.6401C84.2195 76.3683 85.8573 76.736 87.451 76.736C89.1407 76.736 90.8211 76.3878 92.3172 75.7278C93.0603 74.2391 93.437 72.707 93.437 71.1758C93.437 69.6383 93.0438 68.0391 92.3002 66.547C90.6815 65.8297 88.991 65.4494 87.4081 65.4494C85.7087 65.4494 84.0796 65.7891 82.5633 66.4596C81.8354 67.9205 81.4649 69.4515 81.4649 71.0126C81.4649 72.5765 81.8498 74.1764 82.5775 75.6401Z" fill="white"/>
<path d="M4 55.5H45C46.933 55.5 48.5 57.067 48.5 59V84.6C48.5 86.533 46.933 88.1 45 88.1H4C2.067 88.1 0.5 86.533 0.5 84.6V59C0.5 57.067 2.067 55.5 4 55.5Z" fill="#003D79" stroke="#003264"/>
<path fill-rule="evenodd" clip-rule="evenodd" d="M3.54427 73.5364C3.54427 72.9088 3.53322 72.382 3.50006 71.9123H4.65042L4.70436 72.7192H4.73663C4.99736 72.2928 5.47417 71.7886 6.36358 71.7886C7.05779 71.7886 7.60003 72.1928 7.82739 72.7976H7.84971C8.0344 72.4951 8.25059 72.2713 8.49983 72.1138C8.79295 71.9013 9.12928 71.7886 9.56309 71.7886C10.4413 71.7886 11.3301 72.4046 11.3301 74.1525V77.3672H10.0289V74.3544C10.0289 73.4472 9.72568 72.9088 9.08617 72.9088C8.62992 72.9088 8.29337 73.2454 8.15333 73.6377C8.12039 73.7717 8.0879 73.9399 8.0879 74.0956V77.3672H6.78623V74.2083C6.78623 73.4472 6.49389 72.9088 5.8756 72.9088C5.37669 72.9088 5.04091 73.3127 4.92132 73.6927C4.86672 73.828 4.84483 73.9844 4.84483 74.1409V77.3672H3.54427V73.5364Z" fill="white"/>
<path fill-rule="evenodd" clip-rule="evenodd" d="M16.3999 76.0572C16.3999 76.5498 16.4216 77.0307 16.4758 77.3677H15.2716L15.1852 76.763H15.1523C14.8271 77.189 14.274 77.491 13.5909 77.491C12.5278 77.491 11.9316 76.6963 11.9316 75.8669C11.9316 74.4886 13.1133 73.7947 15.0655 73.8058V73.7158C15.0655 73.3572 14.9244 72.7639 13.9919 72.7639C13.4711 72.7639 12.9286 72.9321 12.5709 73.1669L12.3103 72.2715C12.7015 72.0246 13.3853 71.7891 14.2196 71.7891C15.9121 71.7891 16.3999 72.8987 16.3999 74.0856V76.0572ZM15.098 74.702C14.1547 74.6794 13.2548 74.8922 13.2548 75.7212C13.2548 76.2584 13.5909 76.5053 14.014 76.5053C14.5447 76.5053 14.9357 76.1467 15.0547 75.7548C15.0869 75.654 15.098 75.5415 15.098 75.4523V74.702Z" fill="white"/>
<path fill-rule="evenodd" clip-rule="evenodd" d="M17.3221 73.5364C17.3221 72.9088 17.3102 72.382 17.2786 71.9123H18.4488L18.5142 72.73H18.5463C18.7743 72.3048 19.3491 71.7886 20.2273 71.7886C21.1494 71.7886 22.1037 72.4046 22.1037 74.1301V77.3672H20.77V74.2873C20.77 73.5026 20.488 72.9088 19.7613 72.9088C19.2299 72.9088 18.8613 73.3009 18.7199 73.7156C18.6773 73.8391 18.666 74.0075 18.666 74.1632V77.3672H17.3221V73.5364Z" fill="white"/>
<path fill-rule="evenodd" clip-rule="evenodd" d="M27.8869 69.7207V75.8325C27.8869 76.3925 27.9083 76.9985 27.93 77.3677H26.737L26.6836 76.5053H26.6615C26.3469 77.1105 25.706 77.491 24.9369 77.491C23.6794 77.491 22.6814 76.3822 22.6814 74.7019C22.6703 72.8759 23.7765 71.789 25.0452 71.789C25.7716 71.789 26.2926 72.1031 26.5308 72.5067H26.5528V69.7207H27.8869ZM26.5528 74.1858C26.5528 74.0749 26.5416 73.9399 26.5207 73.8282C26.4012 73.2905 25.978 72.8534 25.3707 72.8534C24.514 72.8534 24.0367 73.6379 24.0367 74.6573C24.0367 75.654 24.514 76.3822 25.3599 76.3822C25.9019 76.3822 26.3793 76.0015 26.5093 75.4079C26.5416 75.2842 26.5528 75.1499 26.5528 75.0038V74.1858Z" fill="white"/>
<path fill-rule="evenodd" clip-rule="evenodd" d="M28.8295 77.3672H30.1756V71.9126H28.8295V77.3672Z" fill="white"/>
<path fill-rule="evenodd" clip-rule="evenodd" d="M31.1182 73.6711C31.1182 72.9321 31.1069 72.4049 31.0745 71.9125H32.2352L32.2776 72.954H32.3226C32.5824 72.1811 33.2007 71.9125 33.7644 71.9125C33.8943 71.9125 33.9701 71.8896 34.0789 71.9125V73.1227C33.9701 73.1003 33.8511 73.0779 33.6884 73.0779C33.0486 73.0779 32.6145 73.5032 32.4953 74.1189C32.4742 74.2422 32.4523 74.3884 32.4523 74.546V77.3678H31.1182V73.6711Z" fill="white"/>
<path fill-rule="evenodd" clip-rule="evenodd" d="M34.6971 77.3672H36.0412V71.9126H34.6971V77.3672Z" fill="white"/>
<path fill-rule="evenodd" clip-rule="evenodd" d="M34.3791 65.3176C33.5717 65.8005 31.6673 66.9286 30.9564 67.3488V67.3488C30.5232 67.5768 29.5197 67.6763 28.9521 66.8858V66.8858C28.942 66.8716 28.1973 65.9104 28.1669 65.8742V65.8742C28.1455 65.8487 27.6641 65.111 26.5913 65.088V65.088C26.4328 65.0841 25.6448 65.0798 24.8758 65.5312V65.5312C23.8538 66.1343 21.4768 67.5379 21.4768 67.5379V67.5379C21.4761 67.5379 21.4761 67.5392 21.4749 67.5392V67.5392C20.4979 68.1166 19.7366 68.5662 19.7366 68.5662V68.5662L20.636 69.7073C21.0568 70.247 22.0057 70.6645 22.8285 70.1765V70.1765C22.8285 70.1765 25.869 68.3579 25.8802 68.3526V68.3526C27.1951 67.6077 28.2097 67.6077 28.8832 67.8849V67.8849C29.4876 68.1487 30.0135 68.8061 30.0135 68.8061V68.8061C30.0135 68.8061 30.7008 69.6858 30.822 69.8397V69.8397C31.2131 70.3369 31.8603 70.1416 31.8603 70.1416V70.1416C31.8603 70.1416 32.1002 70.1135 32.4617 69.8918V69.8918C32.4617 69.8918 35.4068 68.1279 35.4087 68.1274V68.1274C36.3438 67.5607 37.2015 67.4548 37.6398 67.4965V67.4965C39.0128 67.6254 39.4393 68.6161 40.0346 69.3073V69.3073C40.3852 69.7138 40.7015 69.9446 41.1853 69.933V69.933C41.5032 69.926 41.8623 69.7269 41.9152 69.691V69.691L45.4419 67.5887C45.4419 67.5887 45.08 67.0258 44.339 66.1499V66.1499C43.6757 65.3685 42.9712 65.722 42.4095 66.0094V66.0094C42.1735 66.13 41.3185 66.7174 40.4714 67.1273V67.1273C39.8678 67.4192 39.0009 67.3314 38.5257 66.725V66.725C38.4973 66.6881 37.7286 65.7268 37.6478 65.6086V65.6086C37.3376 65.2072 36.7322 64.8477 35.9564 64.8477V64.8477C35.4847 64.8477 34.9494 64.9805 34.3791 65.3176" fill="url(#paint0_linear_13_1660)"/>
<rect x="154.5" y="55.5" width="48" height="32.6" rx="3.5" fill="white" stroke="#D9D9D9"/>
<path fill-rule="evenodd" clip-rule="evenodd" d="M161.889 67.6562C162.354 67.5805 162.831 67.5893 163.297 67.6359C163.73 67.7254 164.167 67.8252 164.564 68.0255C165.368 68.409 166.052 69.0306 166.508 69.796C166.886 70.5032 167.146 71.2965 167.107 72.1069C167.118 73.7704 166.064 75.3554 164.571 76.0626C163.604 76.5229 162.478 76.586 161.444 76.3337C160.744 76.1186 160.069 75.7707 159.559 75.2364C159.074 74.7859 158.707 74.212 158.475 73.5943C158.171 72.8344 158.144 71.9895 158.273 71.189C158.509 70.0001 159.243 68.9099 160.283 68.2778C160.767 67.9591 161.323 67.7698 161.889 67.6562ZM161.268 69.791C160.918 69.8267 160.536 69.9496 160.342 70.2656C160.128 70.5683 160.106 70.9469 160.084 71.3066L160.079 71.3947C160.075 71.4855 160.067 71.5761 160.058 71.6667C160.042 71.8495 160.026 72.0325 160.04 72.2166C160.051 72.341 160.058 72.4657 160.066 72.5905C160.085 72.9023 160.103 73.2142 160.171 73.5202C160.255 73.9059 160.602 74.2049 160.985 74.2751C161.699 74.4038 162.426 74.3925 163.149 74.3813H163.149L163.347 74.3783C163.643 74.3618 163.939 74.3316 164.231 74.285C164.669 74.2279 165.056 73.8713 165.128 73.4324C165.253 72.8942 165.276 72.3389 165.239 71.7897C165.168 71.4375 164.919 71.1198 164.581 70.9909C164.428 70.9172 164.259 70.9177 164.093 70.9181C164.064 70.9182 164.035 70.9183 164.006 70.9179C163.679 70.9183 163.353 70.9182 163.027 70.918H163.027H163.026C162.455 70.9177 161.884 70.9173 161.313 70.9201C161.248 70.9213 161.187 70.8989 161.126 70.8767L161.126 70.8767C161.103 70.8684 161.081 70.8602 161.058 70.8532C161.057 70.7303 161.061 70.5465 161.226 70.5432C161.656 70.5335 162.087 70.5364 162.517 70.5392C163.084 70.543 163.651 70.5468 164.216 70.5218C164.155 70.2365 163.981 69.9386 163.681 69.8596C163.411 69.7872 163.131 69.7504 162.853 69.7246C162.774 69.7236 162.694 69.7221 162.615 69.7206C162.164 69.712 161.711 69.7033 161.268 69.791ZM164.332 72.1875C164.187 72.1486 164.014 72.2056 163.964 72.3543C163.932 72.5255 163.983 72.6904 164.034 72.8542C164.055 72.923 164.076 72.9916 164.091 73.0604C164.107 73.07 164.132 73.0843 164.157 73.0986C164.181 73.1128 164.206 73.1271 164.222 73.1367C164.279 73.1038 164.337 73.0741 164.396 73.0483C164.403 72.9036 164.438 72.7643 164.473 72.6251C164.488 72.5633 164.504 72.5016 164.517 72.4393C164.49 72.3368 164.422 72.2429 164.332 72.1875Z" fill="#01ACD7"/>
<path fill-rule="evenodd" clip-rule="evenodd" d="M172.744 69.0233C172.321 68.8576 171.851 68.8762 171.408 68.9311C170.449 69.0792 169.607 69.8111 169.323 70.7389C169.194 71.1065 169.197 71.5032 169.231 71.8867C169.346 72.8677 170.084 73.729 171.02 74.0291C171.684 74.23 172.45 74.2365 173.063 73.8772C173.143 73.8329 173.215 73.7782 173.288 73.7235C173.356 73.6724 173.424 73.6213 173.498 73.5787L173.499 73.6297C173.508 74.0341 173.518 74.4914 173.211 74.7967C173.006 75.048 172.695 75.1802 172.38 75.2285C171.7 75.353 170.982 75.121 170.476 74.6557C170.364 74.7701 170.246 74.8794 170.129 74.9887L170.129 74.9887L170.129 74.9887L170.129 74.9887C169.938 75.1655 169.748 75.3423 169.58 75.5407C170.109 76.041 170.779 76.4021 171.506 76.4981C172.216 76.5875 172.979 76.5442 173.612 76.1793C174.149 75.8814 174.571 75.3728 174.737 74.7797C174.84 74.4842 174.838 74.1685 174.837 73.8596L174.837 73.8075C174.836 72.172 174.836 70.537 174.837 68.9015C174.579 68.8983 174.322 68.8984 174.065 68.8986C173.88 68.8987 173.694 68.8988 173.508 68.8976L173.509 69.0324C173.51 69.1784 173.511 69.3244 173.507 69.4704C173.278 69.2833 173.025 69.1182 172.744 69.0233ZM171.059 70.4487C171.279 70.2533 171.571 70.1787 171.856 70.1365C172.422 70.0503 173.06 70.3099 173.35 70.8174C173.467 71.023 173.462 71.2554 173.458 71.4856V71.4856C173.456 71.5662 173.454 71.6466 173.458 71.7254C173.506 72.2093 173.129 72.6361 172.697 72.8007C172.175 72.9971 171.531 73.0103 171.076 72.6476C170.394 72.1358 170.38 70.9677 171.059 70.4487ZM184.401 68.8987C183.833 68.8949 183.242 69.0644 182.833 69.4737C182.829 69.4214 182.826 69.3691 182.823 69.3169C182.817 69.2269 182.811 69.137 182.804 69.0474C182.357 69.0419 181.911 69.0403 181.464 69.0474C181.465 70.4015 181.465 71.7555 181.465 73.1096C181.465 74.1252 181.465 75.1407 181.465 76.1563C181.779 76.1765 182.093 76.1747 182.408 76.173H182.408H182.408H182.408H182.408C182.554 76.1721 182.7 76.1713 182.846 76.1727C182.856 75.5454 182.854 74.9178 182.852 74.2901V74.29V74.29V74.2899V74.2899C182.851 74.0755 182.85 73.8611 182.85 73.6467C183.835 74.4297 185.404 74.3435 186.29 73.4454C187.255 72.4781 187.31 70.7543 186.381 69.7447C185.892 69.1829 185.142 68.8724 184.401 68.8987ZM182.915 70.9353C183.059 70.5013 183.5 70.2424 183.929 70.1573C184.37 70.0679 184.864 70.1793 185.205 70.4799C185.784 71.0055 185.788 72.0156 185.243 72.5659C184.696 73.0953 183.728 73.0855 183.184 72.556C182.953 72.3514 182.831 72.031 182.852 71.7248C182.856 71.6441 182.854 71.5622 182.852 71.4802C182.847 71.2947 182.842 71.1088 182.915 70.9353ZM177.458 68.9662C178.238 68.8093 179.091 68.9037 179.769 69.3377C180.286 69.6493 180.679 70.1546 180.854 70.7312C181.095 71.4889 180.987 72.3558 180.536 73.0152C180.088 73.6797 179.322 74.0868 178.532 74.163C178.046 74.1959 177.542 74.1795 177.082 74.0023C176.32 73.746 175.68 73.1167 175.455 72.3393C175.213 71.6107 175.325 70.7768 175.739 70.1315C176.122 69.528 176.764 69.116 177.458 68.9662ZM177.784 70.1645C177.59 70.2199 177.409 70.3164 177.249 70.4399C176.699 70.8739 176.564 71.732 176.957 72.313C177.405 73.052 178.561 73.1979 179.168 72.5791C179.465 72.3064 179.606 71.8993 179.566 71.5004C179.6 70.616 178.619 69.9033 177.784 70.1645ZM190.52 68.9317C189.722 68.8269 188.857 68.9382 188.195 69.426C187.813 69.7299 187.486 70.148 187.421 70.6451C187.612 70.6777 187.801 70.719 187.99 70.7602C188.236 70.8139 188.482 70.8676 188.732 70.9024C188.84 70.4684 189.217 70.1233 189.658 70.052C189.944 70.0026 190.241 70.0174 190.52 70.1019C190.763 70.1809 190.948 70.447 190.841 70.7005C190.643 70.8813 190.373 70.9359 190.116 70.988L190.116 70.988C190.083 70.9947 190.05 71.0014 190.018 71.0083L189.884 71.0273C189.232 71.1194 188.554 71.2152 187.999 71.592C187.312 72.0721 187.31 73.2018 187.944 73.7263C188.468 74.1767 189.206 74.2283 189.863 74.1411C190.318 74.056 190.776 73.8591 191.067 73.4843C191.068 73.5768 191.068 73.6692 191.068 73.7617C191.068 73.8543 191.068 73.9468 191.07 74.0396C191.17 74.0394 191.27 74.0391 191.37 74.0388H191.37H191.371H191.371C191.688 74.0378 192.006 74.0368 192.324 74.0418C192.325 73.4219 192.325 72.8023 192.325 72.1827V72.1783V72.1783C192.325 71.7151 192.325 71.252 192.325 70.7888C192.33 70.4119 192.192 70.0449 191.985 69.7343C191.648 69.2614 191.077 69.0227 190.52 68.9317ZM188.793 72.6866C188.721 72.5149 188.861 72.3453 189 72.2609C189.283 72.1053 189.6 72.0473 189.917 71.9894C190.299 71.9196 190.68 71.85 190.998 71.6102C190.995 71.6855 190.997 71.7644 190.999 71.8443C191.008 72.1143 191.016 72.3968 190.818 72.5983C190.435 72.9801 189.852 73.0504 189.337 73.0174C189.123 73.0048 188.841 72.9308 188.793 72.6866ZM192.876 69.0436C192.729 69.0439 192.581 69.0441 192.434 69.0441C192.823 69.8573 193.221 70.6665 193.619 71.4757C193.992 72.2349 194.365 72.9942 194.732 73.757C194.552 74.1528 194.356 74.5414 194.16 74.9299C193.953 75.3406 193.746 75.7513 193.558 76.1705C193.717 76.1698 193.875 76.1711 194.034 76.1723C194.386 76.175 194.739 76.1777 195.092 76.1595C196.248 73.7905 197.402 71.4214 198.556 69.0513C198.038 69.0381 197.52 69.0403 197.002 69.0491C196.505 70.1403 196.002 71.2294 195.496 72.3163C195.347 71.9942 195.196 71.6728 195.045 71.3515C194.799 70.8265 194.553 70.3017 194.314 69.7738C194.275 69.6879 194.233 69.6037 194.191 69.5194C194.113 69.365 194.036 69.2105 193.983 69.0458C193.614 69.0422 193.245 69.0429 192.876 69.0436Z" fill="#010101"/>
<defs>
<linearGradient id="paint0_linear_13_1660" x1="19.7366" y1="70.3926" x2="45.4419" y2="70.3926" gradientUnits="userSpaceOnUse">
<stop stop-color="#FFCA06"/>
<stop offset="0.330844" stop-color="#FBAA18"/>
<stop offset="0.694742" stop-color="#FFC907"/>
<stop offset="1" stop-color="#FAA619"/>
</linearGradient>
</defs>
</svg>
